<mxfile host="app.diagrams.net" modified="2023-11-10T13:25:46.296Z" agent="Mozilla/5.0 (Windows NT 10.0; Win64; x64) AppleWebKit/537.36 (KHTML, like Gecko) Chrome/119.0.0.0 Safari/537.36" etag="uFOsGZdAwcDdix4lxYhd" version="22.1.0" type="device" pages="2">
  <diagram name="Usecase_Tổng quát" id="zYeTXpswLCRAwJdnD2Qo">
    <mxGraphModel dx="3025" dy="1815" grid="1" gridSize="10" guides="1" tooltips="1" connect="1" arrows="1" fold="1" page="0" pageScale="1" pageWidth="827" pageHeight="1169" math="0" shadow="0">
      <root>
        <mxCell id="0" />
        <mxCell id="1" parent="0" />
        <mxCell id="RY1z_0ipfzHZa43gwyNK-13" style="rounded=0;orthogonalLoop=1;jettySize=auto;html=1;exitX=1;exitY=0.3333333333333333;exitDx=0;exitDy=0;exitPerimeter=0;entryX=0;entryY=0.5;entryDx=0;entryDy=0;" edge="1" parent="1" source="RY1z_0ipfzHZa43gwyNK-1" target="RY1z_0ipfzHZa43gwyNK-11">
          <mxGeometry relative="1" as="geometry">
            <mxPoint x="320" y="440" as="targetPoint" />
          </mxGeometry>
        </mxCell>
        <mxCell id="RY1z_0ipfzHZa43gwyNK-1" value="&lt;font style=&quot;font-size: 18px;&quot;&gt;Admin&lt;/font&gt;" style="shape=umlActor;verticalLabelPosition=bottom;verticalAlign=top;html=1;outlineConnect=0;" vertex="1" parent="1">
          <mxGeometry y="50" width="80" height="160" as="geometry" />
        </mxCell>
        <mxCell id="RY1z_0ipfzHZa43gwyNK-14" style="rounded=0;orthogonalLoop=1;jettySize=auto;html=1;exitX=1;exitY=0.3333333333333333;exitDx=0;exitDy=0;exitPerimeter=0;entryX=0;entryY=0.5;entryDx=0;entryDy=0;" edge="1" parent="1" source="RY1z_0ipfzHZa43gwyNK-7" target="RY1z_0ipfzHZa43gwyNK-11">
          <mxGeometry relative="1" as="geometry">
            <mxPoint x="320" y="440" as="targetPoint" />
          </mxGeometry>
        </mxCell>
        <mxCell id="RY1z_0ipfzHZa43gwyNK-7" value="&lt;font style=&quot;font-size: 18px;&quot;&gt;Nhân viên&lt;/font&gt;" style="shape=umlActor;verticalLabelPosition=bottom;verticalAlign=top;html=1;outlineConnect=0;" vertex="1" parent="1">
          <mxGeometry y="250" width="80" height="160" as="geometry" />
        </mxCell>
        <mxCell id="RY1z_0ipfzHZa43gwyNK-15" style="rounded=0;orthogonalLoop=1;jettySize=auto;html=1;exitX=1;exitY=0.3333333333333333;exitDx=0;exitDy=0;exitPerimeter=0;entryX=0;entryY=0.5;entryDx=0;entryDy=0;" edge="1" parent="1" source="RY1z_0ipfzHZa43gwyNK-8" target="RY1z_0ipfzHZa43gwyNK-11">
          <mxGeometry relative="1" as="geometry">
            <mxPoint x="320" y="440" as="targetPoint" />
          </mxGeometry>
        </mxCell>
        <mxCell id="RY1z_0ipfzHZa43gwyNK-8" value="&lt;span style=&quot;font-size: 18px;&quot;&gt;User đã đăng nhập&lt;/span&gt;" style="shape=umlActor;verticalLabelPosition=bottom;verticalAlign=top;html=1;outlineConnect=0;" vertex="1" parent="1">
          <mxGeometry y="450" width="80" height="160" as="geometry" />
        </mxCell>
        <mxCell id="RY1z_0ipfzHZa43gwyNK-16" style="rounded=0;orthogonalLoop=1;jettySize=auto;html=1;exitX=1;exitY=0.3333333333333333;exitDx=0;exitDy=0;exitPerimeter=0;entryX=0;entryY=0.5;entryDx=0;entryDy=0;" edge="1" parent="1" source="RY1z_0ipfzHZa43gwyNK-9" target="RY1z_0ipfzHZa43gwyNK-11">
          <mxGeometry relative="1" as="geometry">
            <mxPoint x="320" y="440" as="targetPoint" />
          </mxGeometry>
        </mxCell>
        <mxCell id="RY1z_0ipfzHZa43gwyNK-9" value="User chưa&lt;br&gt;&amp;nbsp;đăng nhập" style="shape=umlActor;verticalLabelPosition=bottom;verticalAlign=top;html=1;outlineConnect=0;" vertex="1" parent="1">
          <mxGeometry y="650" width="80" height="160" as="geometry" />
        </mxCell>
        <mxCell id="RY1z_0ipfzHZa43gwyNK-11" value="&lt;font style=&quot;font-size: 21px;&quot;&gt;Web bán hàng&lt;/font&gt;" style="ellipse;whiteSpace=wrap;html=1;" vertex="1" parent="1">
          <mxGeometry x="200" y="320" width="360" height="160" as="geometry" />
        </mxCell>
        <mxCell id="RY1z_0ipfzHZa43gwyNK-39" style="rounded=0;orthogonalLoop=1;jettySize=auto;html=1;exitX=0;exitY=1;exitDx=0;exitDy=0;entryX=1;entryY=0.5;entryDx=0;entryDy=0;" edge="1" parent="1" source="RY1z_0ipfzHZa43gwyNK-20" target="RY1z_0ipfzHZa43gwyNK-11">
          <mxGeometry relative="1" as="geometry">
            <mxPoint x="591.25" y="360" as="targetPoint" />
          </mxGeometry>
        </mxCell>
        <mxCell id="RY1z_0ipfzHZa43gwyNK-20" value="&lt;font style=&quot;font-size: 21px;&quot;&gt;QL Sản phẩm&lt;/font&gt;" style="ellipse;whiteSpace=wrap;html=1;" vertex="1" parent="1">
          <mxGeometry x="670" y="20" width="350" height="120" as="geometry" />
        </mxCell>
        <mxCell id="RY1z_0ipfzHZa43gwyNK-38" style="rounded=0;orthogonalLoop=1;jettySize=auto;html=1;exitX=0.5;exitY=1;exitDx=0;exitDy=0;entryX=1;entryY=0.5;entryDx=0;entryDy=0;" edge="1" parent="1" source="RY1z_0ipfzHZa43gwyNK-22" target="RY1z_0ipfzHZa43gwyNK-11">
          <mxGeometry relative="1" as="geometry">
            <mxPoint x="508.37209302325573" y="360" as="targetPoint" />
          </mxGeometry>
        </mxCell>
        <mxCell id="RY1z_0ipfzHZa43gwyNK-22" value="&lt;font style=&quot;font-size: 21px;&quot;&gt;Đăng nhập / Đăng ký&amp;nbsp;&lt;/font&gt;" style="ellipse;whiteSpace=wrap;html=1;" vertex="1" parent="1">
          <mxGeometry x="384" y="-70" width="350" height="120" as="geometry" />
        </mxCell>
        <mxCell id="RY1z_0ipfzHZa43gwyNK-27" value="&lt;font style=&quot;font-size: 21px;&quot;&gt;QL Danh mục&lt;/font&gt;" style="ellipse;whiteSpace=wrap;html=1;" vertex="1" parent="1">
          <mxGeometry x="990" y="90" width="350" height="120" as="geometry" />
        </mxCell>
        <mxCell id="RY1z_0ipfzHZa43gwyNK-41" style="rounded=0;orthogonalLoop=1;jettySize=auto;html=1;exitX=0;exitY=0.5;exitDx=0;exitDy=0;entryX=1;entryY=0.5;entryDx=0;entryDy=0;" edge="1" parent="1" source="RY1z_0ipfzHZa43gwyNK-28" target="RY1z_0ipfzHZa43gwyNK-11">
          <mxGeometry relative="1" as="geometry">
            <mxPoint x="680" y="440" as="targetPoint" />
          </mxGeometry>
        </mxCell>
        <mxCell id="RY1z_0ipfzHZa43gwyNK-28" value="&lt;font style=&quot;font-size: 21px;&quot;&gt;QL Tài khoản&lt;/font&gt;" style="ellipse;whiteSpace=wrap;html=1;" vertex="1" parent="1">
          <mxGeometry x="1180" y="210" width="350" height="120" as="geometry" />
        </mxCell>
        <mxCell id="RY1z_0ipfzHZa43gwyNK-42" style="rounded=0;orthogonalLoop=1;jettySize=auto;html=1;exitX=0;exitY=0.5;exitDx=0;exitDy=0;entryX=1;entryY=0.5;entryDx=0;entryDy=0;" edge="1" parent="1" source="RY1z_0ipfzHZa43gwyNK-29" target="RY1z_0ipfzHZa43gwyNK-11">
          <mxGeometry relative="1" as="geometry">
            <mxPoint x="680" y="440" as="targetPoint" />
          </mxGeometry>
        </mxCell>
        <mxCell id="RY1z_0ipfzHZa43gwyNK-29" value="&lt;font style=&quot;font-size: 21px;&quot;&gt;QL Hóa đơn&lt;/font&gt;" style="ellipse;whiteSpace=wrap;html=1;" vertex="1" parent="1">
          <mxGeometry x="1280" y="340" width="350" height="120" as="geometry" />
        </mxCell>
        <mxCell id="RY1z_0ipfzHZa43gwyNK-46" style="rounded=0;orthogonalLoop=1;jettySize=auto;html=1;exitX=0;exitY=0;exitDx=0;exitDy=0;entryX=1;entryY=0.5;entryDx=0;entryDy=0;" edge="1" parent="1" source="RY1z_0ipfzHZa43gwyNK-30" target="RY1z_0ipfzHZa43gwyNK-11">
          <mxGeometry relative="1" as="geometry" />
        </mxCell>
        <mxCell id="RY1z_0ipfzHZa43gwyNK-30" value="&lt;font style=&quot;font-size: 21px;&quot;&gt;QL Tài khoản cá nhân&lt;/font&gt;" style="ellipse;whiteSpace=wrap;html=1;" vertex="1" parent="1">
          <mxGeometry x="1020" y="610" width="350" height="120" as="geometry" />
        </mxCell>
        <mxCell id="RY1z_0ipfzHZa43gwyNK-43" style="rounded=0;orthogonalLoop=1;jettySize=auto;html=1;exitX=0;exitY=0.5;exitDx=0;exitDy=0;entryX=1;entryY=0.5;entryDx=0;entryDy=0;" edge="1" parent="1" source="RY1z_0ipfzHZa43gwyNK-31" target="RY1z_0ipfzHZa43gwyNK-11">
          <mxGeometry relative="1" as="geometry">
            <mxPoint x="680" y="440" as="targetPoint" />
          </mxGeometry>
        </mxCell>
        <mxCell id="RY1z_0ipfzHZa43gwyNK-31" value="&lt;span style=&quot;font-size: 21px;&quot;&gt;Thống kê&lt;/span&gt;" style="ellipse;whiteSpace=wrap;html=1;" vertex="1" parent="1">
          <mxGeometry x="1180" y="470" width="350" height="120" as="geometry" />
        </mxCell>
        <mxCell id="RY1z_0ipfzHZa43gwyNK-45" style="rounded=0;orthogonalLoop=1;jettySize=auto;html=1;exitX=0;exitY=0;exitDx=0;exitDy=0;entryX=1;entryY=0.5;entryDx=0;entryDy=0;" edge="1" parent="1" source="RY1z_0ipfzHZa43gwyNK-32" target="RY1z_0ipfzHZa43gwyNK-11">
          <mxGeometry relative="1" as="geometry">
            <mxPoint x="740" y="580" as="targetPoint" />
          </mxGeometry>
        </mxCell>
        <mxCell id="RY1z_0ipfzHZa43gwyNK-32" value="&lt;font style=&quot;font-size: 21px;&quot;&gt;Mua hàng&lt;/font&gt;" style="ellipse;whiteSpace=wrap;html=1;" vertex="1" parent="1">
          <mxGeometry x="670" y="660" width="350" height="120" as="geometry" />
        </mxCell>
        <mxCell id="RY1z_0ipfzHZa43gwyNK-44" style="rounded=0;orthogonalLoop=1;jettySize=auto;html=1;exitX=0.5;exitY=0;exitDx=0;exitDy=0;entryX=1.003;entryY=0.482;entryDx=0;entryDy=0;entryPerimeter=0;" edge="1" parent="1" source="RY1z_0ipfzHZa43gwyNK-33" target="RY1z_0ipfzHZa43gwyNK-11">
          <mxGeometry relative="1" as="geometry">
            <mxPoint x="680" y="440" as="targetPoint" />
          </mxGeometry>
        </mxCell>
        <mxCell id="RY1z_0ipfzHZa43gwyNK-33" value="&lt;font style=&quot;font-size: 21px;&quot;&gt;Hóa đơn mua&lt;/font&gt;" style="ellipse;whiteSpace=wrap;html=1;" vertex="1" parent="1">
          <mxGeometry x="384" y="760" width="350" height="120" as="geometry" />
        </mxCell>
        <mxCell id="RY1z_0ipfzHZa43gwyNK-40" style="rounded=0;orthogonalLoop=1;jettySize=auto;html=1;exitX=0;exitY=0.5;exitDx=0;exitDy=0;entryX=1;entryY=0.5;entryDx=0;entryDy=0;" edge="1" parent="1" source="RY1z_0ipfzHZa43gwyNK-27" target="RY1z_0ipfzHZa43gwyNK-11">
          <mxGeometry relative="1" as="geometry">
            <mxPoint x="690" y="410" as="targetPoint" />
          </mxGeometry>
        </mxCell>
      </root>
    </mxGraphModel>
  </diagram>
  <diagram id="GqHnZQny6amINxSAuFs9" name="Usecase_Phân giã">
    <mxGraphModel dx="3400" dy="2017" grid="1" gridSize="10" guides="1" tooltips="1" connect="1" arrows="1" fold="1" page="0" pageScale="1" pageWidth="827" pageHeight="1169" math="0" shadow="0">
      <root>
        <mxCell id="0" />
        <mxCell id="1" parent="0" />
        <mxCell id="5GMo7OkCrkT90t5o_Ot0-1" value="&lt;font style=&quot;font-size: 18px;&quot;&gt;Admin&lt;/font&gt;" style="shape=umlActor;verticalLabelPosition=bottom;verticalAlign=top;html=1;outlineConnect=0;" vertex="1" parent="1">
          <mxGeometry x="-240" y="-40" width="80" height="160" as="geometry" />
        </mxCell>
        <mxCell id="5GMo7OkCrkT90t5o_Ot0-2" value="&lt;span style=&quot;font-size: 18px;&quot;&gt;Nhân viên&lt;/span&gt;" style="shape=umlActor;verticalLabelPosition=bottom;verticalAlign=top;html=1;outlineConnect=0;" vertex="1" parent="1">
          <mxGeometry x="-240" y="160" width="80" height="160" as="geometry" />
        </mxCell>
        <mxCell id="5GMo7OkCrkT90t5o_Ot0-3" value="&lt;span style=&quot;font-size: 18px;&quot;&gt;Khách hàng&lt;/span&gt;" style="shape=umlActor;verticalLabelPosition=bottom;verticalAlign=top;html=1;outlineConnect=0;" vertex="1" parent="1">
          <mxGeometry x="-240" y="440" width="80" height="160" as="geometry" />
        </mxCell>
      </root>
    </mxGraphModel>
  </diagram>
</mxfile>
